# AST/ASF file generated using VICON BodyLanguage
# -----------------------------------------------
:version 1.10
:name VICON
:units
  mass 1.0
  length 0.45
  angle deg
:documentation
   .ast/.asf automatically generated from VICON data using
   VICON BodyBuilder and BodyLanguage model FoxedUp or BRILLIANT.MOD
:root
   order TX TY TZ RX RY RZ
   axis XYZ
   position 0 0 0  
   orientation 0 0 0 
:bonedata
  begin
     id 1 
     name lhipjoint
     direction 0.612567 -0.751349 0.245431 
     length 2.42285 
     axis 0 0 0  XYZ
  end
  begin
     id 2 
     name lfemur
     direction 0.34202 -0.939693 0  
     length 7.11304  
     axis 0 0 20  XYZ
    dof rx ry rz
    limits (-160.0 20.0)
           (-70.0 70.0)
           (-60.0 70.0)
  end
  begin
     id 3 
     name ltibia
     direction 0.34202 -0.939693 0   
     length 7.84529   
     axis 0 0 20   XYZ
    dof rx
    limits (-10.0 170.0)
  end
  begin
     id 4 
     name lfoot
     direction 0.0779239 -0.214094 0.9737   
     length 1.97176   
     axis -90 7.62852e-016 20   XYZ
    dof rx rz
    limits (-45.0 90.0)
           (-70.0 20.0)
  end
  begin
     id 5 
     name ltoes
     direction 1.53565e-011 -4.21709e-011 1   
     length 0.993197   
     axis -90 7.62852e-016 20   XYZ
    dof rx
    limits (-90.0 20.0)
  end
  begin
     id 6 
     name rhipjoint
     direction -0.665722 -0.709315 0.231701   
     length 2.56642  
     axis 0 0 0  XYZ 
  end
  begin
     id 7 
     name rfemur
     direction -0.34202 -0.939693 0   
     length 7.32108   
     axis 0 0 -20   XYZ
    dof rx ry rz
    limits (-160.0 20.0)
           (-70.0 70.0)
           (-70.0 60.0)
  end
  begin
     id 8 
     name rtibia
     direction -0.34202 -0.939693 0   
     length 7.81254   
     axis 0 0 -20   XYZ
    dof rx
    limits (-10.0 170.0)
 end
 begin
     id 9 
     name rfoot
     direction -0.0832806 -0.228812 0.969902   
     length 2.08278  
     axis -90 -7.62852e-016 -20   XYZ
    dof rx rz
    limits (-45.0 90.0)
           (-20.0 70.0)
  end
  begin
     id 10 
     name rtoes
     direction -1.53589e-011 -4.22086e-011 1   
     length 1.04609   
     axis -90 -7.62852e-016 -20   XYZ
    dof rx
    limits (-90.0 20.0)
  end
  begin
     id 11 
     name lowerback
     direction -0.00506013 0.988403 -0.151766   
     length 2.01978   
     axis 0 0 0   XYZ
    dof rx ry rz
    limits (-20.0 45.0)
           (-30.0 30.0)
           (-30.0 30.0)
  end
  begin
     id 12 
     name upperback
     direction -0.00836389 0.99968 0.0238859   
     length 2.01276   
     axis 0 0 0   XYZ
    dof rx ry rz
    limits (-20.0 45.0)
           (-30.0 30.0)
           (-30.0 30.0)
  end
  begin
     id 13 
     name thorax
     direction -0.00684136 0.995386 0.0957043   
     length 2.07303   
     axis 0 0 0   XYZ
    dof rx ry rz
    limits (-20.0 45.0)
           (-30.0 30.0)
           (-30.0 30.0)
  end
  begin
     id 14 
     name lowerneck
     direction -0.0161045 0.999661 0.0204485   
     length 1.91243   
     axis 0 0 0   XYZ
    dof rx ry rz
    limits (-20.0 45.0)
           (-30.0 30.0)
           (-30.0 30.0)
  end
  begin
     id 15 
     name upperneck
     direction 0.0553583 0.990946 -0.122319   
     length 1.91574   
     axis 0 0 0   XYZ
    dof rx ry rz
    limits (-20.0 45.0)
           (-30.0 30.0)
           (-30.0 30.0)
  end
  begin
     id 16
     name head
     direction 0.0180273 0.998839 -0.0446756  
     length 1.92693  
     axis 0 0 0   XYZ
    dof rx ry rz
    limits (-20.0 45.0)
           (-30.0 30.0)
           (-30.0 30.0)
  end
  begin
     id 17 
     name lclavicle
     direction 0.945646 0.319323 -0.0615358  
     length 4.0076  
     axis 0 0 0   XYZ
    dof ry rz
    limits (-20.0 10.0)
           (0.0 20.0)
  end
  begin
     id 18 
     name lhumerus
     direction 1 -4.48967e-011 -2.79996e-027   
     length 5.64147   
     axis 180 -30 -90   XYZ
    dof rx ry rz
    limits (-60.0 90.0)
           (-90.0 90.0)
           (-90.0 90.0)
  end
  begin
     id 19
     name lradius
     direction 1 -4.48976e-011 -9.5122e-027   
     length 2.86444   
     axis 180 -30 -90   XYZ
    dof rx
    limits (-10.0 170.0)
  end
  begin
     id 20
     name lwrist
     direction 1 -4.48983e-011 -1.24047e-026   
     length 1.43222   
     axis 9.05591e-015 90 90   XYZ
    dof ry
    limits (-180.0 0.0)
 end
  begin
     id 21 
     name lhand
     direction 1 -4.4892e-011 -2.48094e-026   
     length 0.722123   
     axis 1.58305e-014 90 90   XYZ
    dof rx rz
    limits (-90.0 90.0)
           (-45.0 45.0)
  end
  begin
     id 22 
     name lfingers
     direction 1 -4.48895e-011 -4.96187e-026   
     length 0.582194   
     axis 3.1661e-014 90 90   XYZ
    dof rx
    limits (0.0 90.0)
  end
  begin
     id 23
     name lthumb
     direction 0.707107 -6.34961e-011 0.707107   
     length 0.835918   
     axis -90 45 2.85299e-015   XYZ
    dof rx rz
    limits (-45.0 45.0)
           (-45.0 45.0)
  end
  begin
     id 24 
     name rclavicle
     direction -0.932635 0.324218 -0.15835   
     length 3.65819  
     axis 0 0 0   XYZ 
    dof ry rz
    limits (-10.0 20.0)
           (-20.0 0.0)
  end
  begin
     id 25 
     name rhumerus
     direction -1 -4.48965e-011 -4.02296e-027  
     length 5.44729   
     axis 180 30 90   XYZ
    dof rx ry rz
    limits (-90.0 60.0)
           (-90.0 90.0)
           (-90.0 90.0)
  end
  begin
     id 26 
     name rradius
     direction -1 -4.48957e-011 -8.81087e-027   
     length 3.08821   
     axis 180 30 90   XYZ
    dof rx
    limits (-10.0 170.0)
  end
  begin
     id 27 
     name rwrist
     direction -1 -4.49015e-011 -1.24047e-026   
     length 1.5441   
     axis 9.05591e-015 -90 -90   XYZ
    dof ry
    limits (-180.0 0.0)
  end
  begin
     id 28
     name rhand
     direction -1 -4.4891e-011 -2.48094e-026   
     length 0.821049   
     axis 1.58305e-014 -90 -90   XYZ
    dof rx rz
    limits (-90.0 90.0)
           (-45.0 45.0)
  end
  begin
     id 29
     name rfingers
     direction -1 -4.48985e-011 -4.96187e-026   
     length 0.661951   
     axis 3.1661e-014 -90 -90   XYZ
    dof rx
    limits (0.0 90.0)
  end
  begin
     id 30
     name rthumb
     direction -0.707107 -6.34906e-011 0.707107   
     length 0.950433   
     axis -90 -45 -2.85299e-015   XYZ
    dof rx rz
    limits (-45.0 45.0)
           (-45.0 45.0)
  end
:hierarchy
  begin
    root lhipjoint rhipjoint lowerback
    lhipjoint lfemur
    lfemur ltibia
    ltibia lfoot
    lfoot ltoes
    rhipjoint rfemur
    rfemur rtibia
    rtibia rfoot
    rfoot rtoes
    lowerback upperback
    upperback thorax
    thorax lowerneck lclavicle rclavicle
    lowerneck upperneck
    upperneck head
    lclavicle lhumerus
    lhumerus lradius
    lradius lwrist
    lwrist lhand lthumb
    lhand lfingers
    rclavicle rhumerus
    rhumerus rradius
    rradius rwrist
    rwrist rhand rthumb
    rhand rfingers
  end

#!OML:ASF F:\VICON\USERDATA\INSTALL\rory3\rory3.ASF
:FULLY-SPECIFIED
:DEGREES
1001
root -1.7772 17.4647 -8.7024 -181.656 -32.0748 -180.009
lowerback -1.10188 -0.366917 -0.830581
upperback 3.24076 -0.490277 -1.9312
thorax 3.9427 -0.276459 -1.54935
lowerneck -3.64041 -4.55392 -4.71165
upperneck 16.4558 -7.47891 6.26873
head 5.97331 -3.76263 2.24604
rclavicle 7.25067e-014 -3.10104e-014
rhumerus -36.6748 -4.00209 -86.0184
rradius 28.6236
rwrist 15.9015
rhand -6.67953 8.98092
rfingers 7.12502
rthumb 19.179 -20.0934
lclavicle 7.25067e-014 -3.10104e-014
lhumerus -19.7148 -10.0218 84.6614
lradius 40.4773
lwrist 35.9404
lhand -13.4814 10.2607
lfingers 7.12502
lthumb 12.6291 39.8589
rfemur -23.927 4.85206 22.9368
rtibia 25.8093
rfoot -16.7542 -2.31881
rtoes -17.2935
lfemur 3.11812 9.10915 -25.7164
ltibia 17.4218
lfoot -17.1921 -4.60732
ltoes -2.13013
1002
root -1.81412 17.4693 -8.75348 -181.584 -32.1368 -180.122
lowerback -1.07871 -0.37804 -0.969029
upperback 3.22235 -0.502039 -1.909
thorax 3.91153 -0.286902 -1.44884
lowerneck -3.62422 -4.56797 -4.80876
upperneck 16.473 -7.50097 6.3156
head 5.98244 -3.77674 2.27536
rclavicle -8.87574e-014 3.4191e-014
rhumerus -36.7453 -3.98273 -85.9934
rradius 28.6606
rwrist 15.8873
rhand -6.82269 9.09404
rfingers 7.12502
rthumb 19.0413 -19.9939
lclavicle -8.87574e-014 3.4191e-014
lhumerus -20.009 -10.0505 84.927
lradius 40.5144
lwrist 36.1629
lhand -13.5816 10.4017
lfingers 7.12502
lthumb 12.5325 40.0058
rfemur -24.0191 4.29508 23.1365
rtibia 24.8752
rfoot -16.5282 -1.80557
rtoes -17.3959
lfemur 3.66741 8.96815 -25.8111
ltibia 16.7972
lfoot -17.0359 -4.46808
ltoes -2.40659
1003
root -1.84968 17.4766 -8.80381 -181.416 -32.1807 -180.309
lowerback -1.08178 -0.388305 -1.12324
upperback 3.19307 -0.511123 -1.93785
thorax 3.88387 -0.295975 -1.39228
lowerneck -3.63543 -4.56078 -4.91436
upperneck 16.4735 -7.49956 6.4244
head 5.99217 -3.77495 2.32674
rclavicle -1.16289e-013 2.94201e-014
rhumerus -36.7613 -3.9071 -86.057
rradius 28.7041
rwrist 15.8541
rhand -7.02507 9.00714
rfingers 7.12502
rthumb 18.8467 -20.0998
lclavicle -1.16289e-013 2.94201e-014
lhumerus -20.2757 -9.92598 85.1306
lradius 40.4184
lwrist 36.0341
lhand -13.3808 10.3636
lfingers 7.12502
lthumb 12.7261 39.9558
rfemur -24.1746 3.97099 23.2347
rtibia 23.9506
rfoot -16.4852 -1.55184
rtoes -16.1474
lfemur 4.10167 8.95866 -25.947
ltibia 16.2505
lfoot -16.8464 -4.52844
ltoes -2.17813
1004
root -1.88593 17.481 -8.85455 -181.25 -32.2338 -180.424
lowerback -1.15607 -0.39033 -1.11758
upperback 3.17869 -0.510988 -2.01155
thorax 3.91049 -0.294877 -1.47224
lowerneck -3.65858 -4.58922 -4.94506
upperneck 16.429 -7.54523 6.52274
head 5.98972 -3.79111 2.35916
rclavicle 8.99501e-015 2.94201e-014
rhumerus -36.6456 -4.10233 -86.1296
rradius 28.5859
rwrist 16.0778
rhand -7.18188 8.96995
rfingers 7.12502
rthumb 18.6959 -20.1516
lclavicle 8.99501e-015 2.94201e-014
lhumerus -20.48 -9.96619 85.2679
lradius 40.1945
lwrist 35.9185
lhand -13.1021 10.2925
lfingers 7.12502
lthumb 12.9948 39.8677
rfemur -24.3609 3.42913 23.4504
rtibia 23.0344
rfoot -16.2066 -1.35548
rtoes -15.9371
lfemur 4.43081 8.9526 -26.0225
ltibia 15.8025
lfoot -16.6177 -4.63932
ltoes -1.77579
1005
root -1.92063 17.4838 -8.90443 -181.223 -32.2994 -180.423
lowerback -1.14736 -0.391555 -1.0844
upperback 3.19876 -0.514022 -2.01626
thorax 3.92602 -0.295583 -1.496
lowerneck -3.68793 -4.64081 -4.91268
upperneck 16.3618 -7.60241 6.50121
head 5.97542 -3.81544 2.34266
rclavicle -5.70512e-014 8.74653e-015
rhumerus -36.419 -4.50524 -86.0862
rradius 28.3724
rwrist 16.4389
rhand -7.11005 9.15692
rfingers 7.12502
rthumb 18.765 -19.958
lclavicle -5.70512e-014 8.74653e-015
lhumerus -20.7036 -10.1045 85.4924
lradius 39.9963
lwrist 35.996
lhand -13.2195 10.3424
lfingers 7.12502
lthumb 12.8816 39.9249
rfemur -24.4487 2.78692 23.8049
rtibia 22.1878
rfoot -15.9989 -1.15391
rtoes -16.0384
lfemur 4.84714 8.85243 -26.0037
ltibia 15.3619
lfoot -16.4187 -4.6521
ltoes -1.80552
1006
root -1.95349 17.486 -8.95434 -181.181 -32.3679 -180.421
lowerback -1.1242 -0.39636 -1.1025
upperback 3.18808 -0.520623 -1.97574
thorax 3.90213 -0.299531 -1.44388
lowerneck -3.65281 -4.67805 -4.99323
upperneck 16.2868 -7.63743 6.50785
head 5.95131 -3.83579 2.35697
rclavicle 8.87077e-014 1.66979e-014
rhumerus -36.4523 -4.60224 -86.0031
rradius 28.4553
rwrist 16.464
rhand -6.86617 9.2553
rfingers 7.12502
rthumb 18.9995 -19.8367
lclavicle 8.87077e-014 1.66979e-014
lhumerus -21.0072 -10.0785 85.7772
lradius 39.7809
lwrist 35.9359
lhand -13.3792 10.3592
lfingers 7.12502
lthumb 12.7276 39.9513
rfemur -24.5513 2.14352 24.1698
rtibia 21.4248
rfoot -16.0208 -0.855396
rtoes -14.2136
lfemur 5.2485 8.91577 -25.9551
ltibia 14.9317
lfoot -16.2754 -4.72175
ltoes -2.48631
1007
root -1.99172 17.4879 -9.00624 -181.032 -32.4417 -180.541
lowerback -1.20677 -0.380334 -1.15347
upperback 3.16044 -0.494642 -1.98444
thorax 3.92107 -0.287481 -1.42372
lowerneck -3.5072 -4.73286 -5.12689
upperneck 16.171 -7.70867 6.58665
head 5.90222 -3.87614 2.40332
rclavicle 1.44119e-014 5.48646e-014
rhumerus -36.7489 -4.29104 -86.0316
rradius 28.7951
rwrist 15.9035
rhand -6.79927 9.27944
rfingers 7.12502
rthumb 19.0639 -19.8063
lclavicle 1.44119e-014 5.48646e-014
lhumerus -21.3724 -10.0246 86.0752
lradius 39.5595
lwrist 35.8029
lhand -13.7056 10.2465
lfingers 7.12502
lthumb 12.4129 39.8579
rfemur -24.6814 1.35851 24.4432
rtibia 20.734
rfoot -16.0705 -0.534688
rtoes -12.885
lfemur 5.63446 9.00816 -26.0376
ltibia 14.4984
lfoot -16.2068 -4.74702
ltoes -3.33729
1008
root -2.03195 17.4869 -9.05823 -180.926 -32.5005 -180.665
lowerback -1.23678 -0.370481 -1.18241
upperback 3.15097 -0.479405 -2.02192
thorax 3.92851 -0.280442 -1.44573
lowerneck -3.34677 -4.76767 -5.06738
upperneck 16.0195 -7.7468 6.54823
head 5.82586 -3.89711 2.38443
rclavicle 3.77691e-015 4.77083e-015
rhumerus -36.8877 -4.00246 -86.1515
rradius 28.9474
rwrist 15.4933
rhand -6.95217 9.46413
rfingers 7.12502
rthumb 18.9168 -19.636
lclavicle 3.77691e-015 4.77083e-015
lhumerus -21.6911 -9.89845 86.3019
lradius 39.165
lwrist 35.582
lhand -13.8558 10.066
lfingers 7.12502
lthumb 12.2682 39.6862
rfemur -24.7773 0.324666 24.7944
rtibia 20.0984
rfoot -15.9751 -0.444155
rtoes -15.3545
lfemur 6.07463 9.00732 -26.1527
ltibia 14.0788
lfoot -16.1488 -4.63224
ltoes -4.01114
1009
root -2.06817 17.4881 -9.10877 -180.846 -32.5591 -180.745
lowerback -1.21056 -0.405487 -1.22441
upperback 3.14702 -0.525849 -2.02875
thorax 3.90912 -0.304957 -1.43103
lowerneck -3.2994 -4.76762 -4.98514
upperneck 15.9179 -7.73059 6.47529
head 5.77915 -3.889 2.3515
rclavicle 3.0265e-014 4.69132e-014
rhumerus -36.8483 -3.79578 -86.2796
rradius 29.0237
rwrist 15.4746
rhand -6.88795 9.31753
rfingers 7.12502
rthumb 18.9786 -19.7766
lclavicle 3.0265e-014 4.69132e-014
lhumerus -21.9983 -9.65803 86.4536
lradius 38.7227
lwrist 35.4199
lhand -13.6882 9.9943
lfingers 7.12502
lthumb 12.4298 39.6047
rfemur -24.8668 -0.383671 25.1065
rtibia 19.49
rfoot -16.0428 -0.680451
rtoes -17.4706
lfemur 6.46275 8.99053 -26.2099
ltibia 13.6975
lfoot -15.9913 -4.59898
ltoes -4.2382
1010
root -2.10492 17.488 -9.16039 -180.815 -32.5463 -180.745
lowerback -1.24085 -0.374973 -1.16684
upperback 3.17871 -0.486103 -2.02093
thorax 3.95938 -0.283684 -1.45416
lowerneck -3.32865 -4.79704 -4.941
upperneck 15.8308 -7.7538 6.44627
head 5.75579 -3.89632 2.33357
rclavicle 3.74212e-014 -3.89618e-014
rhumerus -36.8023 -3.83805 -86.2622
rradius 29.1359
rwrist 15.6022
rhand -6.57364 9.22211
rfingers 7.12502
rthumb 19.2808 -19.8421
lclavicle 3.74212e-014 -3.89618e-014
lhumerus -22.2055 -9.50706 86.6477
lradius 38.1707
lwrist 35.1492
lhand -13.6819 9.68304
lfingers 7.12502
lthumb 12.4359 39.2931
rfemur -24.8905 -0.873799 25.4505
rtibia 18.8532
rfoot -16.1378 -0.833059
rtoes -16.7755
lfemur 6.77796 9.00075 -26.1813
ltibia 13.4532
lfoot -15.9225 -4.62051
ltoes -4.6002
1011
root -2.14303 17.4854 -9.21307 -180.807 -32.4309 -180.816
lowerback -1.22968 -0.278266 -1.13706
upperback 3.22733 -0.358974 -2.02685
thorax 4.00542 -0.220271 -1.47156
lowerneck -3.37803 -4.8468 -4.98433
upperneck 15.746 -7.80565 6.47958
head 5.74403 -3.91753 2.34685
rclavicle 7.5886e-014 -1.03368e-014
rhumerus -36.8138 -3.70193 -86.2885
rradius 29.2741
rwrist 15.4279
rhand -6.47094 9.15957
rfingers 7.12502
rthumb 19.3796 -19.8947
lclavicle 7.5886e-014 -1.03368e-014
lhumerus -22.4194 -9.52996 86.9209
lradius 37.5946
lwrist 34.9481
lhand -13.7533 9.36606
lfingers 7.12502
lthumb 12.3669 38.9803
rfemur -24.7987 -1.3298 25.7439
rtibia 18.197
rfoot -16.234 -0.895823
rtoes -15.6205
lfemur 7.09755 9.05625 -26.2306
ltibia 13.3312
lfoot -15.9537 -4.49828
ltoes -6.41368
